<?xml version="1.0" encoding="UTF-8" standalone="no"?>
<!-- Created with Inkscape (http://www.inkscape.org/) -->

<svg
   xmlns:dc="http://purl.org/dc/elements/1.1/"
   xmlns:cc="http://creativecommons.org/ns#"
   xmlns:rdf="http://www.w3.org/1999/02/22-rdf-syntax-ns#"
   xmlns:svg="http://www.w3.org/2000/svg"
   xmlns="http://www.w3.org/2000/svg"
   xmlns:sodipodi="http://sodipodi.sourceforge.net/DTD/sodipodi-0.dtd"
   xmlns:inkscape="http://www.inkscape.org/namespaces/inkscape"
   width="210mm"
   height="297mm"
   viewBox="0 0 210 297"
   version="1.1"
   id="svg5512"
   inkscape:version="0.92.4 (5da689c313, 2019-01-14)"
   sodipodi:docname="irokeesi.svg">
  <defs
     id="defs5506" />
  <sodipodi:namedview
     id="base"
     pagecolor="#ffffff"
     bordercolor="#666666"
     borderopacity="1.0"
     inkscape:pageopacity="0.0"
     inkscape:pageshadow="2"
     inkscape:zoom="1.979899"
     inkscape:cx="395.37511"
     inkscape:cy="546.06705"
     inkscape:document-units="mm"
     inkscape:current-layer="layer1"
     showgrid="false"
     inkscape:window-width="3840"
     inkscape:window-height="2066"
     inkscape:window-x="-11"
     inkscape:window-y="-11"
     inkscape:window-maximized="1" />
  <metadata
     id="metadata5509">
    <rdf:RDF>
      <cc:Work
         rdf:about="">
        <dc:format>image/svg+xml</dc:format>
        <dc:type
           rdf:resource="http://purl.org/dc/dcmitype/StillImage" />
        <dc:title></dc:title>
      </cc:Work>
    </rdf:RDF>
  </metadata>
  <g
     inkscape:label="Layer 1"
     inkscape:groupmode="layer"
     id="layer1">
    <path
       style="fill:#00ff00;stroke:#000000;stroke-width:0.26458332px;stroke-linecap:butt;stroke-linejoin:miter;stroke-opacity:1;fill-opacity:1"
       d="m 38.852928,161.84075 c -2.17816,-8.53601 -2.513682,-11.82573 -3.216396,-16.175 -0.229608,-1.37765 -0.981908,-11.06665 -1.090038,-12.25608 -0.372597,-4.09857 1.930305,-13.27251 4.495761,-16.47931 13.065642,-19.469226 5.118672,-9.98577 6.579206,3.10897 0.08952,6.72366 1.106814,9.44704 1.400213,11.30524 0.954193,4.67031 4.897607,9.92553 4.91566,10.02193 0.01413,0.099 1.81478,0.64376 1.924273,0.0963 0.723857,-3.61929 -0.275156,-10.18436 0,-14.17411 0.119687,-6.36962 1.044825,-9.2708 1.55915,-12.47322 0.635926,-3.81554 3.359093,-8.58286 5.811386,-11.48103 3.807945,-4.163368 5.674268,-5.128762 8.532547,-7.264571 3.041546,-1.762938 5.392823,-3.448586 8.126487,-4.630207 1.877854,-1.007487 7.620993,-2.950665 10.838733,-3.932967 -5.428023,4.971705 -9.319808,10.988914 -10.158109,14.410345 -0.79386,2.07482 -1.152417,5.24183 -0.850448,8.45721 0.449703,1.69516 1.45745,3.74043 2.409598,5.00819 1.74814,-2.29672 5.917578,-8.04615 7.109167,-9.0888 5.133289,-4.49163 8.988404,-7.505132 15.327032,-10.158511 5.8423,-2.445615 11.35415,-4.345735 17.55297,-5.413839 6.67393,-1.14997 11.74897,-1.420192 17.96533,-1.420192 1.03024,0 8.16635,0.560889 12.93536,1.646524 -3.90844,0.234608 -13.54166,3.685774 -14.27008,4.049981 -7.58172,2.475108 -11.83454,4.381139 -16.31881,10.303617 -0.34994,0.30877 -4.56833,9.20099 -0.99145,7.05741 4.41294,-2.64463 11.18681,-7.2264 14.97107,-8.48252 2.42192,-0.80391 8.42368,-2.35207 14.18771,-2.21308 4.90964,-0.0652 9.03634,1.6151 11.86417,2.83777 1.64004,0.48643 5.37819,3.399 6.36286,4.57608 1.46556,0.94215 4.04721,5.77849 5.14026,6.87153 -2.9416,-1.9658 -9.71839,-4.59294 -16.29759,-5.1107 -2.13714,-0.16818 -10.48367,0.86605 -13.68799,2.80691 -2.19745,0.97659 -5.64013,4.76775 -7.79942,7.83274 3.33519,-0.53887 8.77307,-2.83741 11.34782,-2.83741 1.18753,0 9.47009,-0.44471 13.15299,0.91452 3.6829,1.35923 8.04471,2.9856 10.61152,5.12326 5.13363,4.2753 8.82011,13.27634 10.38237,17.27942 -5.10501,-1.72627 -16.44295,-9.89748 -22.70038,-10.23477 -2.17811,-0.1174 -8.02722,0.8359 -8.85514,2.14691 -0.0992,0.15712 5.56369,1.31685 6.06773,1.55879 5.04218,2.4203 11.06012,3.57877 15.48551,8.68182 5.28841,6.28559 9.87525,20.73386 11.59719,24.07437 1.4165,2.74797 -7.96078,-6.82072 -11.62731,-10.38174 -1.4327,-1.39147 -11.17306,-8.49047 -14.51379,-5.50025 3.02361,1.94222 10.40108,7.09982 11.19681,14.24461 1.37245,12.3232 2.02333,25.07999 0.59687,30.33671 -0.53855,1.98463 -0.95001,-11.86415 -7.18155,-20.41072 -3.23122,-7.51872 -12.24115,-17.64824 -15.68601,-18.61531 -3.41249,-1.63207 -6.28765,-3.87553 -9.82738,-5.05544 -5.57518,-1.90068 -12.45735,-2.57537 -15.44978,-2.92932 -4.32619,0.0855 -15.36117,0.37994 -20.646942,0.9922 -5.24181,1.48885 -10.698672,3.17261 -13.748883,4.29947 -1.029836,0.88272 -4.926045,2.87306 -6.000373,3.73252 -3.296676,1.72617 -6.410692,5.01945 -10.583332,10.29985 -0.967788,1.20973 -7.043748,9.92582 -8.126489,11.00856 -3.037642,3.75808 -2.453321,4.53588 -6.803573,6.61458 -0.290459,0.14523 -2.504294,0.18899 -2.834819,0.18899 -4.267047,0 -4.594429,-1.68957 -5.70658,-3.18855 -0.654894,-2.17136 -1.165753,-4.49818 -1.833544,-7.54708 z"
       id="path5514"
       inkscape:connector-curvature="0"
       sodipodi:nodetypes="ccscccccccccccccccssscccssccccsccssscssscsscssccccccccccsccc"
       inkscape:export-filename="C:\Users\MuseoAR\Documents\MuseoAR Projekti\MuseoAR\Assets\Resources\irokeesi_vihr2.png"
       inkscape:export-xdpi="72"
       inkscape:export-ydpi="72" />
    <path
       style="fill:#006d00;fill-opacity:1;stroke:#000000;stroke-width:0.25937733px;stroke-linecap:butt;stroke-linejoin:miter;stroke-opacity:1"
       d="m 38.535773,163.66296 c -2.24448,-7.96103 -2.59023,-11.02914 -3.31433,-15.08545 -0.2366,-1.28485 -1.01181,-10.32119 -1.12323,-11.43051 -0.38393,-3.82248 1.98908,-12.37845 4.63264,-15.36924 13.46345,-18.15777 5.27453,-9.31312 6.77953,2.89955 0.0922,6.27075 1.14051,8.81068 1.44284,10.54372 0.98325,4.3557 5.04672,9.25693 5.06533,9.34683 0.0146,0.0924 1.87003,0.6004 1.98286,0.0897 0.74589,-3.3755 -0.28354,-9.49834 0,-13.21934 0.12333,-5.94057 1.07663,-8.64631 1.60662,-11.63302 0.65529,-3.55851 3.46137,-8.00471 5.98832,-10.70768 3.92389,-3.8829 5.84703,-4.78326 8.79234,-6.77518 3.13415,-1.6442 5.55701,-3.216309 8.37391,-4.318319 1.93503,-0.93962 7.85302,-2.7519 11.16873,-3.66805 -5.59329,4.6368 -9.60356,10.248689 -10.46739,13.439649 -0.81803,1.93505 -1.1875,4.88874 -0.87634,7.88753 0.4634,1.58097 1.50183,3.48847 2.48296,4.67083 1.80137,-2.14201 6.09775,-7.50415 7.32562,-8.47657 5.28958,-4.18906 9.26208,-6.99959 15.793717,-9.47421 6.02018,-2.28089 11.69982,-4.053009 18.0874,-5.049169 6.87712,-1.07251 12.10668,-1.32453 18.51229,-1.32453 1.06162,0 8.415,0.52311 13.32921,1.53562 -4.02744,0.21881 -13.95395,3.437489 -14.70455,3.777149 -7.81257,2.30839 -12.19487,4.08603 -16.81566,9.60956 -0.3606,0.28797 -4.70743,8.58121 -1.02165,6.58203 4.54731,-2.46648 11.52742,-6.73962 15.4269,-7.91113 2.49566,-0.74976 8.68015,-2.19363 14.61967,-2.06401 5.05913,-0.0607 9.31147,1.50631 12.2254,2.64661 1.68997,0.45367 5.54194,3.17005 6.55658,4.26783 1.51018,0.87869 4.17044,5.38926 5.29677,6.40868 -3.03116,-1.8334 -10.01428,-4.28357 -16.79381,-4.76647 -2.20219,-0.15683 -10.80285,0.80775 -14.10472,2.61786 -2.26436,0.91081 -5.81186,4.44658 -8.0369,7.30511 3.43674,-0.50258 9.04018,-2.64627 11.69333,-2.64627 1.22369,0 9.75842,-0.41475 13.55346,0.8529 3.79503,1.26768 8.28964,2.7845 10.93459,4.77815 5.28994,3.98733 9.08866,12.38205 10.69849,16.11548 -5.26045,-1.60998 -16.94359,-9.23077 -23.39154,-9.54535 -2.24442,-0.10947 -8.27162,0.7796 -9.12474,2.00229 -0.10221,0.14654 5.73308,1.22814 6.25246,1.4538 5.19571,2.25726 11.39686,3.33769 15.957,8.097 5.44941,5.86219 10.17592,19.33723 11.95029,22.45271 1.45963,2.56286 -8.20317,-6.36126 -11.98132,-9.68241 -1.47633,-1.29775 -11.51326,-7.91856 -14.9557,-5.12975 3.11568,1.81138 10.71776,6.62156 11.53772,13.28508 1.41422,11.49309 2.08494,23.39058 0.61504,28.2932 -0.55493,1.85094 -0.97894,-11.06497 -7.4002,-19.03584 -3.3296,-7.01224 -12.61385,-16.45945 -16.16361,-17.36135 -3.51638,-1.52215 -6.47908,-3.6145 -10.12658,-4.71492 -5.74493,-1.77265 -12.83664,-2.40189 -15.92018,-2.732 -4.4579,0.0797 -15.82886,0.35434 -21.275567,0.92536 -5.40142,1.38856 -11.02442,2.95889 -14.16751,4.00985 -1.06119,0.82327 -5.07602,2.67954 -6.18306,3.48111 -3.39705,1.60989 -6.60587,4.68134 -10.90556,9.60604 -0.99725,1.12825 -7.2582,9.25721 -8.37391,10.26702 -3.13013,3.50493 -2.52802,4.23034 -7.01072,6.16903 -0.2993,0.13543 -2.58054,0.17625 -2.92113,0.17625 -4.39697,0 -4.73431,-1.57577 -5.88032,-2.97376 -0.67484,-2.02512 -1.20126,-4.19519 -1.88938,-7.03871 z"
       id="path5514-0"
       inkscape:connector-curvature="0"
       sodipodi:nodetypes="ccscccccccccccccccssscccssccccsccssscssscsscssccccccccccsccc"
       inkscape:export-filename="C:\Users\MuseoAR\Documents\MuseoAR Projekti\MuseoAR\Assets\Resources\irokeesi_vihr2.png"
       inkscape:export-xdpi="72"
       inkscape:export-ydpi="72" />
  </g>
</svg>
