<svg xmlns="http://www.w3.org/2000/svg" xmlns:svg="http://www.w3.org/2000/svg" xmlns:xlink="http://www.w3.org/1999/xlink" id="svg4708" width="210mm" height="297mm" version="1.1" viewBox="0 0 210 297"><defs id="defs4702"><linearGradient id="linearGradient5502"><stop id="stop5498" offset="0" stop-color="#0f0" stop-opacity="1"/><stop id="stop5500" offset="1" stop-color="#0f0" stop-opacity="0"/></linearGradient><linearGradient id="linearGradient5494"><stop id="stop5490" offset="0" stop-color="#0f0" stop-opacity="1"/><stop id="stop5492" offset="1" stop-color="#0f0" stop-opacity="0"/></linearGradient><linearGradient id="linearGradient5496" x1="49.488" x2="69.011" y1="146.557" y2="146.557" gradientUnits="userSpaceOnUse" xlink:href="#linearGradient5494"/><linearGradient id="linearGradient5504" x1="76.6" x2="96.123" y1="145.792" y2="145.792" gradientTransform="translate(0.37797621,0.33072913)" gradientUnits="userSpaceOnUse" xlink:href="#linearGradient5502"/></defs><metadata id="metadata4705"/><g id="layer1"><ellipse id="path4756-4" cx="59.006" cy="146.26" fill="#0f0" fill-opacity="1" stroke="none" stroke-dasharray="none" stroke-miterlimit="4" stroke-opacity="1" stroke-width="4.046" opacity=".338" rx="9.761" ry="9.872"/><ellipse id="path4756-4-1" cx="86.334" cy="145.876" fill="#0f0" fill-opacity="1" stroke="none" stroke-dasharray="none" stroke-miterlimit="4" stroke-opacity="1" stroke-width="4.046" opacity=".338" rx="9.761" ry="9.872"/><g id="g5480" stroke="#323232" stroke-opacity="1" transform="translate(0.37797619,0.1889881)"><ellipse id="path4756" cx="58.966" cy="146.21" fill="none" fill-opacity="1" stroke="#323232" stroke-dasharray="none" stroke-miterlimit="4" stroke-opacity="1" stroke-width="1.165" opacity="1" rx="10.29" ry="10.407"/><ellipse id="path4756-8" cx="86.295" cy="145.826" fill="none" fill-opacity="1" stroke="#323232" stroke-dasharray="none" stroke-miterlimit="4" stroke-opacity="1" stroke-width="1.165" opacity="1" rx="10.29" ry="10.407"/><path id="path5346" fill="none" stroke="#323232" stroke-dasharray="none" stroke-linecap="butt" stroke-linejoin="miter" stroke-miterlimit="4" stroke-opacity="1" stroke-width="1.065" d="m 69.12258,145.35795 c 0.04771,-0.87054 0.446214,-1.71687 1.08685,-2.30822 0.640636,-0.59136 1.516086,-0.92099 2.387656,-0.89902 0.85978,0.0217 1.706293,0.38487 2.314442,0.99302 0.608148,0.60816 0.971346,1.45467 0.993016,2.31445" transform="translate(0.13363476,1.5033911)"/></g><ellipse id="path4756-4-1-1" cx="86.739" cy="146.123" fill="url(#linearGradient5504)" fill-opacity="1" fill-rule="nonzero" stroke="none" stroke-dasharray="none" stroke-miterlimit="4" stroke-opacity="1" stroke-width="4.046" opacity=".338" rx="9.761" ry="9.872"/><ellipse id="path4756-4-1-1-2" cx="59.25" cy="146.557" fill="url(#linearGradient5496)" fill-opacity="1" fill-rule="nonzero" stroke="none" stroke-dasharray="none" stroke-miterlimit="4" stroke-opacity="1" stroke-width="4.046" opacity=".338" rx="9.761" ry="9.872"/><g id="g5475" transform="translate(0.05906449,25.53265)"><ellipse id="path4756-6" cx="58.813" cy="120.677" fill="none" fill-opacity="1" stroke="#a9a9a9" stroke-dasharray="none" stroke-miterlimit="4" stroke-opacity="1" stroke-width="1.165" opacity="1" rx="10.29" ry="10.407"/><ellipse id="path4756-8-1" cx="86.141" cy="120.293" fill="none" fill-opacity="1" stroke="#a9a9a9" stroke-dasharray="none" stroke-miterlimit="4" stroke-opacity="1" stroke-width="1.165" opacity="1" rx="10.29" ry="10.407"/><path id="path5346-4" fill="none" stroke="#acacac" stroke-dasharray="none" stroke-linecap="butt" stroke-linejoin="miter" stroke-miterlimit="4" stroke-opacity="1" stroke-width="1.065" d="m 69.12258,145.35795 c 0.04771,-0.87054 0.446214,-1.71687 1.08685,-2.30822 0.640636,-0.59136 1.516086,-0.92099 2.387656,-0.89902 0.85978,0.0217 1.706293,0.38487 2.314442,0.99302 0.608148,0.60816 0.971346,1.45467 0.993016,2.31445" transform="translate(-0.01992378,-24.029259)"/></g></g></svg>